# xmcd
#
# Track frame offsets:
#	150
#	17255
#	30297
#	43634
#	57784
#	68439
#	86289
#	108449
#	120513
#	139340
#	151696
#	160106
#	173869
#	198172
#
# Disc length: 2801 seconds
#
# Revision: 1
# Processed by: cddbd v1.5.2PL0 Copyright (c) Steve Scherf et al.
# Submitted via: audiograbber 1.83.01
#
DISCID=990aef0e
DTITLE=Sandy Reay and Friends - I Wanted To Fly
DYEAR=2010
DGENRE=Country
TTITLE0=I Wanted To Fly - Christy Wessler
TTITLE1=Black Leather Coat - J. J. Fraser
TTITLE2=Free Fall - B. J. Suter
TTITLE3=Already Gone - Bob Turner
TTITLE4=Maybe This Time - Sandy Reay
TTITLE5=I'll Hold You Close - J. J. Fraser
TTITLE6=Red Shoes - Sandy Reay
TTITLE7=State Line Cafe - B. J. Suter
TTITLE8=One Lonely Rider - Ernie Martinez
TTITLE9=Hitchhiker - Sandy Reay
TTITLE10=Car Full of Collies - B. J. Suter
TTITLE11=Black Creek - Sandy Reay
TTITLE12=Whole Lotta Pain - Ernie Martinez
TTITLE13=Sandstorm From Sedona - Sandy Reay
EXTD=
EXTT0=
EXTT1=
EXTT2=
EXTT3=
EXTT4=
EXTT5=
EXTT6=
EXTT7=
EXTT8=
EXTT9=
EXTT10=
EXTT11=
EXTT12=
EXTT13=
PLAYORDER=
